<svg id="geo_frac_sm" viewBox="0 0 430 275" aria-hidden="true" preserveAspectRatio="xMidYMid slice" role="img" xmlns="http://www.w3.org/2000/svg">
  <path fill-rule="evenodd" clip-rule="evenodd" d="M323 220H377V275H323V220ZM326 223.028H331.5V228.578H326V223.028ZM334.5 231.606H326V237.156H340V223.028H334.5V231.606ZM343 223.028H348.5V245.734H326V240.183H343V223.028ZM348.5 248.761H326V254.817H334.5V263.394H343V271.972H348.5V248.761ZM334.5 266.422H340V271.972H334.5V266.422ZM331.5 257.844H326V263.394H331.5V257.844ZM326 266.422H331.5V271.972H326V266.422ZM374 266.422H368.5V271.972H374V266.422ZM374 263.394H365.5V271.972H360V257.844H374V263.394ZM357 254.435H374V248.761H351.5V271.972H357V254.435ZM351.5 245.734V223.028H357V231.419H365.5V240.183H374V245.734H351.5ZM374 231.606H368.5V237.156H374V231.606ZM368.5 223.028H374V228.578H368.5V223.028ZM365.5 223.028H360V228.578H365.5V223.028Z" fill="#40E28F" />
  <path fill-rule="evenodd" clip-rule="evenodd" d="M215 220H269V275H215V220ZM218 223.028H223.5V228.578H218V223.028ZM226.5 231.606H218V237.156H232V223.028H226.5V231.606ZM235 223.028H240.5V245.734H218V240.183H235V223.028ZM240.5 248.761H218V254.817H226.5V263.394H235V271.972H240.5V248.761ZM226.5 266.422H232V271.972H226.5V266.422ZM223.5 257.844H218V263.394H223.5V257.844ZM218 266.422H223.5V271.972H218V266.422ZM266 266.422H260.5V271.972H266V266.422ZM266 263.394H257.5V271.972H252V257.844H266V263.394ZM249 254.435H266V248.761H243.5V271.972H249V254.435ZM243.5 245.734V223.028H249V231.419H257.5V240.183H266V245.734H243.5ZM266 231.606H260.5V237.156H266V231.606ZM260.5 223.028H266V228.578H260.5V223.028ZM257.5 223.028H252V228.578H257.5V223.028Z" fill="#40E28F" />
  <path fill-rule="evenodd" clip-rule="evenodd" d="M161 165H215V220H161V165ZM164 168.028H169.5V173.578H164V168.028ZM172.5 176.606H164V182.156H178V168.028H172.5V176.606ZM181 168.028H186.5V190.734H164V185.183H181V168.028ZM186.5 193.761H164V199.817H172.5V208.394H181V216.972H186.5V193.761ZM172.5 211.422H178V216.972H172.5V211.422ZM169.5 202.844H164V208.394H169.5V202.844ZM164 211.422H169.5V216.972H164V211.422ZM212 211.422H206.5V216.972H212V211.422ZM212 208.394H203.5V216.972H198V202.844H212V208.394ZM195 199.435H212V193.761H189.5V216.972H195V199.435ZM189.5 190.734V168.028H195V176.419H203.5V185.183H212V190.734H189.5ZM212 176.606H206.5V182.156H212V176.606ZM206.5 168.028H212V173.578H206.5V168.028ZM203.5 168.028H198V173.578H203.5V168.028Z" fill="#40E28F" />
  <path fill-rule="evenodd" clip-rule="evenodd" d="M107 220H161V275H107V220ZM110 223.028H115.5V228.578H110V223.028ZM118.5 231.606H110V237.156H124V223.028H118.5V231.606ZM127 223.028H132.5V245.734H110V240.183H127V223.028ZM132.5 248.761H110V254.817H118.5V263.394H127V271.972H132.5V248.761ZM118.5 266.422H124V271.972H118.5V266.422ZM115.5 257.844H110V263.394H115.5V257.844ZM110 266.422H115.5V271.972H110V266.422ZM158 266.422H152.5V271.972H158V266.422ZM158 263.394H149.5V271.972H144V257.844H158V263.394ZM141 254.435H158V248.761H135.5V271.972H141V254.435ZM135.5 245.734V223.028H141V231.419H149.5V240.183H158V245.734H135.5ZM158 231.606H152.5V237.156H158V231.606ZM152.5 223.028H158V228.578H152.5V223.028ZM149.5 223.028H144V228.578H149.5V223.028Z" fill="#40E28F" />
  <path fill-rule="evenodd" clip-rule="evenodd" d="M53 165H107V220H53V165ZM56 168.028H61.5V173.578H56V168.028ZM64.5 176.606H56V182.156H70V168.028H64.5V176.606ZM73 168.028H78.5V190.734H56V185.183H73V168.028ZM78.5 193.761H56V199.817H64.5V208.394H73V216.972H78.5V193.761ZM64.5 211.422H70V216.972H64.5V211.422ZM61.5 202.844H56V208.394H61.5V202.844ZM56 211.422H61.5V216.972H56V211.422ZM104 211.422H98.5V216.972H104V211.422ZM104 208.394H95.5V216.972H90V202.844H104V208.394ZM87 199.435H104V193.761H81.5V216.972H87V199.435ZM81.5 190.734V168.028H87V176.419H95.5V185.183H104V190.734H81.5ZM104 176.606H98.5V182.156H104V176.606ZM98.5 168.028H104V173.578H98.5V168.028ZM95.5 168.028H90V173.578H95.5V168.028Z" fill="#40E28F" />
  <path fill-rule="evenodd" clip-rule="evenodd" d="M-1 110H53V165H-1V110ZM2 113.028H7.5V118.578H2V113.028ZM10.5 121.606H2V127.156H16V113.028H10.5V121.606ZM19 113.028H24.5V135.734H2V130.183H19V113.028ZM24.5 138.761H2V144.817H10.5V153.394H19V161.972H24.5V138.761ZM10.5 156.422H16V161.972H10.5V156.422ZM7.5 147.844H2V153.394H7.5V147.844ZM2 156.422H7.5V161.972H2V156.422ZM50 156.422H44.5V161.972H50V156.422ZM50 153.394H41.5V161.972H36V147.844H50V153.394ZM33 144.435H50V138.761H27.5V161.972H33V144.435ZM27.5 135.734V113.028H33V121.419H41.5V130.183H50V135.734H27.5ZM50 121.606H44.5V127.156H50V121.606ZM44.5 113.028H50V118.578H44.5V113.028ZM41.5 113.028H36V118.578H41.5V113.028Z" fill="#40E28F" />
  <path fill-rule="evenodd" clip-rule="evenodd" d="M323 165H377V220H323V165ZM326 168.028H331.5V173.578H326V168.028ZM334.5 176.606H326V182.156H340V168.028H334.5V176.606ZM343 168.028H348.5V190.734H326V185.183H343V168.028ZM348.5 193.761H326V199.817H334.5V208.394H343V216.972H348.5V193.761ZM334.5 211.422H340V216.972H334.5V211.422ZM331.5 202.844H326V208.394H331.5V202.844ZM326 211.422H331.5V216.972H326V211.422ZM374 211.422H368.5V216.972H374V211.422ZM374 208.394H365.5V216.972H360V202.844H374V208.394ZM357 199.435H374V193.761H351.5V216.972H357V199.435ZM351.5 190.734V168.028H357V176.419H365.5V185.183H374V190.734H351.5ZM374 176.606H368.5V182.156H374V176.606ZM368.5 168.028H374V173.578H368.5V168.028ZM365.5 168.028H360V173.578H365.5V168.028Z" fill="#A377E6" />
  <path fill-rule="evenodd" clip-rule="evenodd" d="M269 220H323V275H269V220ZM272 223.028H277.5V228.578H272V223.028ZM280.5 231.606H272V237.156H286V223.028H280.5V231.606ZM289 223.028H294.5V245.734H272V240.183H289V223.028ZM294.5 248.761H272V254.817H280.5V263.394H289V271.972H294.5V248.761ZM280.5 266.422H286V271.972H280.5V266.422ZM277.5 257.844H272V263.394H277.5V257.844ZM272 266.422H277.5V271.972H272V266.422ZM320 266.422H314.5V271.972H320V266.422ZM320 263.394H311.5V271.972H306V257.844H320V263.394ZM303 254.435H320V248.761H297.5V271.972H303V254.435ZM297.5 245.734V223.028H303V231.419H311.5V240.183H320V245.734H297.5ZM320 231.606H314.5V237.156H320V231.606ZM314.5 223.028H320V228.578H314.5V223.028ZM311.5 223.028H306V228.578H311.5V223.028Z" fill="#A377E6" />
  <path fill-rule="evenodd" clip-rule="evenodd" d="M161 110H215V165H161V110ZM164 113.028H169.5V118.578H164V113.028ZM172.5 121.606H164V127.156H178V113.028H172.5V121.606ZM181 113.028H186.5V135.734H164V130.183H181V113.028ZM186.5 138.761H164V144.817H172.5V153.394H181V161.972H186.5V138.761ZM172.5 156.422H178V161.972H172.5V156.422ZM169.5 147.844H164V153.394H169.5V147.844ZM164 156.422H169.5V161.972H164V156.422ZM212 156.422H206.5V161.972H212V156.422ZM212 153.394H203.5V161.972H198V147.844H212V153.394ZM195 144.435H212V138.761H189.5V161.972H195V144.435ZM189.5 135.734V113.028H195V121.419H203.5V130.183H212V135.734H189.5ZM212 121.606H206.5V127.156H212V121.606ZM206.5 113.028H212V118.578H206.5V113.028ZM203.5 113.028H198V118.578H203.5V113.028Z" fill="#A377E6" />
  <path fill-rule="evenodd" clip-rule="evenodd" d="M107 165H161V220H107V165ZM110 168.028H115.5V173.578H110V168.028ZM118.5 176.606H110V182.156H124V168.028H118.5V176.606ZM127 168.028H132.5V190.734H110V185.183H127V168.028ZM132.5 193.761H110V199.817H118.5V208.394H127V216.972H132.5V193.761ZM118.5 211.422H124V216.972H118.5V211.422ZM115.5 202.844H110V208.394H115.5V202.844ZM110 211.422H115.5V216.972H110V211.422ZM158 211.422H152.5V216.972H158V211.422ZM158 208.394H149.5V216.972H144V202.844H158V208.394ZM141 199.435H158V193.761H135.5V216.972H141V199.435ZM135.5 190.734V168.028H141V176.419H149.5V185.183H158V190.734H135.5ZM158 176.606H152.5V182.156H158V176.606ZM152.5 168.028H158V173.578H152.5V168.028ZM149.5 168.028H144V173.578H149.5V168.028Z" fill="#A377E6" />
  <path fill-rule="evenodd" clip-rule="evenodd" d="M377 165H431V220H377V165ZM380 168.028H385.5V173.578H380V168.028ZM388.5 176.606H380V182.156H394V168.028H388.5V176.606ZM397 168.028H402.5V190.734H380V185.183H397V168.028ZM402.5 193.761H380V199.817H388.5V208.394H397V216.972H402.5V193.761ZM388.5 211.422H394V216.972H388.5V211.422ZM385.5 202.844H380V208.394H385.5V202.844ZM380 211.422H385.5V216.972H380V211.422ZM428 211.422H422.5V216.972H428V211.422ZM428 208.394H419.5V216.972H414V202.844H428V208.394ZM411 199.435H428V193.761H405.5V216.972H411V199.435ZM405.5 190.734V168.028H411V176.419H419.5V185.183H428V190.734H405.5ZM428 176.606H422.5V182.156H428V176.606ZM422.5 168.028H428V173.578H422.5V168.028ZM419.5 168.028H414V173.578H419.5V168.028Z" fill="#223256" />
  <path fill-rule="evenodd" clip-rule="evenodd" d="M323 110H377V165H323V110ZM326 113.028H331.5V118.578H326V113.028ZM334.5 121.606H326V127.156H340V113.028H334.5V121.606ZM343 113.028H348.5V135.734H326V130.183H343V113.028ZM348.5 138.761H326V144.817H334.5V153.394H343V161.972H348.5V138.761ZM334.5 156.422H340V161.972H334.5V156.422ZM331.5 147.844H326V153.394H331.5V147.844ZM326 156.422H331.5V161.972H326V156.422ZM374 156.422H368.5V161.972H374V156.422ZM374 153.394H365.5V161.972H360V147.844H374V153.394ZM357 144.435H374V138.761H351.5V161.972H357V144.435ZM351.5 135.734V113.028H357V121.419H365.5V130.183H374V135.734H351.5ZM374 121.606H368.5V127.156H374V121.606ZM368.5 113.028H374V118.578H368.5V113.028ZM365.5 113.028H360V118.578H365.5V113.028Z" fill="#223256" />
  <path fill-rule="evenodd" clip-rule="evenodd" d="M269 165H323V220H269V165ZM272 168.028H277.5V173.578H272V168.028ZM280.5 176.606H272V182.156H286V168.028H280.5V176.606ZM289 168.028H294.5V190.734H272V185.183H289V168.028ZM294.5 193.761H272V199.817H280.5V208.394H289V216.972H294.5V193.761ZM280.5 211.422H286V216.972H280.5V211.422ZM277.5 202.844H272V208.394H277.5V202.844ZM272 211.422H277.5V216.972H272V211.422ZM320 211.422H314.5V216.972H320V211.422ZM320 208.394H311.5V216.972H306V202.844H320V208.394ZM303 199.435H320V193.761H297.5V216.972H303V199.435ZM297.5 190.734V168.028H303V176.419H311.5V185.183H320V190.734H297.5ZM320 176.606H314.5V182.156H320V176.606ZM314.5 168.028H320V173.578H314.5V168.028ZM311.5 168.028H306V173.578H311.5V168.028Z" fill="#223256" />
  <path fill-rule="evenodd" clip-rule="evenodd" d="M215 110H269V165H215V110ZM218 113.028H223.5V118.578H218V113.028ZM226.5 121.606H218V127.156H232V113.028H226.5V121.606ZM235 113.028H240.5V135.734H218V130.183H235V113.028ZM240.5 138.761H218V144.817H226.5V153.394H235V161.972H240.5V138.761ZM226.5 156.422H232V161.972H226.5V156.422ZM223.5 147.844H218V153.394H223.5V147.844ZM218 156.422H223.5V161.972H218V156.422ZM266 156.422H260.5V161.972H266V156.422ZM266 153.394H257.5V161.972H252V147.844H266V153.394ZM249 144.435H266V138.761H243.5V161.972H249V144.435ZM243.5 135.734V113.028H249V121.419H257.5V130.183H266V135.734H243.5ZM266 121.606H260.5V127.156H266V121.606ZM260.5 113.028H266V118.578H260.5V113.028ZM257.5 113.028H252V118.578H257.5V113.028Z" fill="#223256" />
  <path fill-rule="evenodd" clip-rule="evenodd" d="M161 55H215V110H161V55ZM164 58.0275H169.5V63.578H164V58.0275ZM172.5 66.6055H164V72.156H178V58.0275H172.5V66.6055ZM181 58.0275H186.5V80.7339H164V75.1835H181V58.0275ZM186.5 83.7615H164V89.8165H172.5V98.3945H181V106.972H186.5V83.7615ZM172.5 101.422H178V106.972H172.5V101.422ZM169.5 92.844H164V98.3945H169.5V92.844ZM164 101.422H169.5V106.972H164V101.422ZM212 101.422H206.5V106.972H212V101.422ZM212 98.3945H203.5V106.972H198V92.844H212V98.3945ZM195 89.4352H212V83.7615H189.5V106.972H195V89.4352ZM189.5 80.7339V58.0275H195V66.4191H203.5V75.1835H212V80.7339H189.5ZM212 66.6055H206.5V72.156H212V66.6055ZM206.5 58.0275H212V63.578H206.5V58.0275ZM203.5 58.0275H198V63.578H203.5V58.0275Z" fill="#223256" />
  <path fill-rule="evenodd" clip-rule="evenodd" d="M107 110H161V165H107V110ZM110 113.028H115.5V118.578H110V113.028ZM118.5 121.606H110V127.156H124V113.028H118.5V121.606ZM127 113.028H132.5V135.734H110V130.183H127V113.028ZM132.5 138.761H110V144.817H118.5V153.394H127V161.972H132.5V138.761ZM118.5 156.422H124V161.972H118.5V156.422ZM115.5 147.844H110V153.394H115.5V147.844ZM110 156.422H115.5V161.972H110V156.422ZM158 156.422H152.5V161.972H158V156.422ZM158 153.394H149.5V161.972H144V147.844H158V153.394ZM141 144.435H158V138.761H135.5V161.972H141V144.435ZM135.5 135.734V113.028H141V121.419H149.5V130.183H158V135.734H135.5ZM158 121.606H152.5V127.156H158V121.606ZM152.5 113.028H158V118.578H152.5V113.028ZM149.5 113.028H144V118.578H149.5V113.028Z" fill="#223256" />
  <path fill-rule="evenodd" clip-rule="evenodd" d="M53 55H107V110H53V55ZM56 58.0275H61.5V63.578H56V58.0275ZM64.5 66.6055H56V72.156H70V58.0275H64.5V66.6055ZM73 58.0275H78.5V80.7339H56V75.1835H73V58.0275ZM78.5 83.7615H56V89.8165H64.5V98.3945H73V106.972H78.5V83.7615ZM64.5 101.422H70V106.972H64.5V101.422ZM61.5 92.844H56V98.3945H61.5V92.844ZM56 101.422H61.5V106.972H56V101.422ZM104 101.422H98.5V106.972H104V101.422ZM104 98.3945H95.5V106.972H90V92.844H104V98.3945ZM87 89.4352H104V83.7615H81.5V106.972H87V89.4352ZM81.5 80.7339V58.0275H87V66.4191H95.5V75.1835H104V80.7339H81.5ZM104 66.6055H98.5V72.156H104V66.6055ZM98.5 58.0275H104V63.578H98.5V58.0275ZM95.5 58.0275H90V63.578H95.5V58.0275Z" fill="#223256" />
  <path fill-rule="evenodd" clip-rule="evenodd" d="M-1 0H53V55H-1V0ZM2 3.02752H7.5V8.57798H2V3.02752ZM10.5 11.6055H2V17.156H16V3.02752H10.5V11.6055ZM19 3.02752H24.5V25.7339H2V20.1835H19V3.02752ZM24.5 28.7615H2V34.8165H10.5V43.3945H19V51.9725H24.5V28.7615ZM10.5 46.422H16V51.9725H10.5V46.422ZM7.5 37.844H2V43.3945H7.5V37.844ZM2 46.422H7.5V51.9725H2V46.422ZM50 46.422H44.5V51.9725H50V46.422ZM50 43.3945H41.5V51.9725H36V37.844H50V43.3945ZM33 34.4352H50V28.7615H27.5V51.9725H33V34.4352ZM27.5 25.7339V3.02752H33V11.4191H41.5V20.1835H50V25.7339H27.5ZM50 11.6055H44.5V17.156H50V11.6055ZM44.5 3.02752H50V8.57798H44.5V3.02752ZM41.5 3.02752H36V8.57798H41.5V3.02752Z" fill="#223256" />
</svg>
