<svg id="geo_frac_lg" viewBox="0 0 1728 654" aria-hidden="true" preserveAspectRatio="xMidYMid slice" role="img" xmlns="http://www.w3.org/2000/svg">
  <path fill-rule="evenodd" clip-rule="evenodd" d="M1620 545H1728V654H1620V545ZM1626 551H1637V562H1626V551ZM1643 568H1626V579H1654V551H1643V568ZM1660 551H1671V596H1626V585H1660V551ZM1671 602H1626V614H1643V631H1660V648H1671V602ZM1643 637H1654V648H1643V637ZM1637 620H1626V631H1637V620ZM1626 637H1637V648H1626V637ZM1722 637H1711V648H1722V637ZM1722 631H1705V648H1694V620H1722V631ZM1688 613.244H1722V602H1677V648H1688V613.244ZM1677 596V551H1688V567.63H1705V585H1722V596H1677ZM1722 568H1711V579H1722V568ZM1711 551H1722V562H1711V551ZM1705 551H1694V562H1705V551Z" fill="#40E28F"/>
  <path fill-rule="evenodd" clip-rule="evenodd" d="M1512 436H1620V545H1512V436ZM1518 442H1529V453H1518V442ZM1535 459H1518V470H1546V442H1535V459ZM1552 442H1563V487H1518V476H1552V442ZM1563 493H1518V505H1535V522H1552V539H1563V493ZM1535 528H1546V539H1535V528ZM1529 511H1518V522H1529V511ZM1518 528H1529V539H1518V528ZM1614 528H1603V539H1614V528ZM1614 522H1597V539H1586V511H1614V522ZM1580 504.244H1614V493H1569V539H1580V504.244ZM1569 487V442H1580V458.63H1597V476H1614V487H1569ZM1614 459H1603V470H1614V459ZM1603 442H1614V453H1603V442ZM1597 442H1586V453H1597V442Z" fill="#40E28F"/>
  <path fill-rule="evenodd" clip-rule="evenodd" d="M1188 545H1296V654H1188V545ZM1194 551H1205V562H1194V551ZM1211 568H1194V579H1222V551H1211V568ZM1228 551H1239V596H1194V585H1228V551ZM1239 602H1194V614H1211V631H1228V648H1239V602ZM1211 637H1222V648H1211V637ZM1205 620H1194V631H1205V620ZM1194 637H1205V648H1194V637ZM1290 637H1279V648H1290V637ZM1290 631H1273V648H1262V620H1290V631ZM1256 613.244H1290V602H1245V648H1256V613.244ZM1245 596V551H1256V567.63H1273V585H1290V596H1245ZM1290 568H1279V579H1290V568ZM1279 551H1290V562H1279V551ZM1273 551H1262V562H1273V551Z" fill="#40E28F"/>
  <path fill-rule="evenodd" clip-rule="evenodd" d="M1080 436H1188V545H1080V436ZM1086 442H1097V453H1086V442ZM1103 459H1086V470H1114V442H1103V459ZM1120 442H1131V487H1086V476H1120V442ZM1131 493H1086V505H1103V522H1120V539H1131V493ZM1103 528H1114V539H1103V528ZM1097 511H1086V522H1097V511ZM1086 528H1097V539H1086V528ZM1182 528H1171V539H1182V528ZM1182 522H1165V539H1154V511H1182V522ZM1148 504.244H1182V493H1137V539H1148V504.244ZM1137 487V442H1148V458.63H1165V476H1182V487H1137ZM1182 459H1171V470H1182V459ZM1171 442H1182V453H1171V442ZM1165 442H1154V453H1165V442Z" fill="#40E28F"/>
  <path fill-rule="evenodd" clip-rule="evenodd" d="M972 327H1080V436H972V327ZM978 333H989V344H978V333ZM995 350H978V361H1006V333H995V350ZM1012 333H1023V378H978V367H1012V333ZM1023 384H978V396H995V413H1012V430H1023V384ZM995 419H1006V430H995V419ZM989 402H978V413H989V402ZM978 419H989V430H978V419ZM1074 419H1063V430H1074V419ZM1074 413H1057V430H1046V402H1074V413ZM1040 395.244H1074V384H1029V430H1040V395.244ZM1029 378V333H1040V349.63H1057V367H1074V378H1029ZM1074 350H1063V361H1074V350ZM1063 333H1074V344H1063V333ZM1057 333H1046V344H1057V333Z" fill="#40E28F"/>
  <path fill-rule="evenodd" clip-rule="evenodd" d="M648 436H756V545H648V436ZM654 442H665V453H654V442ZM671 459H654V470H682V442H671V459ZM688 442H699V487H654V476H688V442ZM699 493H654V505H671V522H688V539H699V493ZM671 528H682V539H671V528ZM665 511H654V522H665V511ZM654 528H665V539H654V528ZM750 528H739V539H750V528ZM750 522H733V539H722V511H750V522ZM716 504.244H750V493H705V539H716V504.244ZM705 487V442H716V458.63H733V476H750V487H705ZM750 459H739V470H750V459ZM739 442H750V453H739V442ZM733 442H722V453H733V442Z" fill="#40E28F"/>
  <path fill-rule="evenodd" clip-rule="evenodd" d="M540 327H648V436H540V327ZM546 333H557V344H546V333ZM563 350H546V361H574V333H563V350ZM580 333H591V378H546V367H580V333ZM591 384H546V396H563V413H580V430H591V384ZM563 419H574V430H563V419ZM557 402H546V413H557V402ZM546 419H557V430H546V419ZM642 419H631V430H642V419ZM642 413H625V430H614V402H642V413ZM608 395.244H642V384H597V430H608V395.244ZM597 378V333H608V349.63H625V367H642V378H597ZM642 350H631V361H642V350ZM631 333H642V344H631V333ZM625 333H614V344H625V333Z" fill="#40E28F"/>
  <path fill-rule="evenodd" clip-rule="evenodd" d="M432 218H540V327H432V218ZM438 224H449V235H438V224ZM455 241H438V252H466V224H455V241ZM472 224H483V269H438V258H472V224ZM483 275H438V287H455V304H472V321H483V275ZM455 310H466V321H455V310ZM449 293H438V304H449V293ZM438 310H449V321H438V310ZM534 310H523V321H534V310ZM534 304H517V321H506V293H534V304ZM500 286.244H534V275H489V321H500V286.244ZM489 269V224H500V240.63H517V258H534V269H489ZM534 241H523V252H534V241ZM523 224H534V235H523V224ZM517 224H506V235H517V224Z" fill="#40E28F"/>
  <path fill-rule="evenodd" clip-rule="evenodd" d="M216 436H324V545H216V436ZM222 442H233V453H222V442ZM239 459H222V470H250V442H239V459ZM256 442H267V487H222V476H256V442ZM267 493H222V505H239V522H256V539H267V493ZM239 528H250V539H239V528ZM233 511H222V522H233V511ZM222 528H233V539H222V528ZM318 528H307V539H318V528ZM318 522H301V539H290V511H318V522ZM284 504.244H318V493H273V539H284V504.244ZM273 487V442H284V458.63H301V476H318V487H273ZM318 459H307V470H318V459ZM307 442H318V453H307V442ZM301 442H290V453H301V442Z" fill="#40E28F"/>
  <path fill-rule="evenodd" clip-rule="evenodd" d="M108 327H216V436H108V327ZM114 333H125V344H114V333ZM131 350H114V361H142V333H131V350ZM148 333H159V378H114V367H148V333ZM159 384H114V396H131V413H148V430H159V384ZM131 419H142V430H131V419ZM125 402H114V413H125V402ZM114 419H125V430H114V419ZM210 419H199V430H210V419ZM210 413H193V430H182V402H210V413ZM176 395.244H210V384H165V430H176V395.244ZM165 378V333H176V349.63H193V367H210V378H165ZM210 350H199V361H210V350ZM199 333H210V344H199V333ZM193 333H182V344H193V333Z" fill="#40E28F"/>
  <path fill-rule="evenodd" clip-rule="evenodd" d="M0 218H108V327H0V218ZM6 224H17V235H6V224ZM23 241H6V252H34V224H23V241ZM40 224H51V269H6V258H40V224ZM51 275H6V287H23V304H40V321H51V275ZM23 310H34V321H23V310ZM17 293H6V304H17V293ZM6 310H17V321H6V310ZM102 310H91V321H102V310ZM102 304H85V321H74V293H102V304ZM68 286.244H102V275H57V321H68V286.244ZM57 269V224H68V240.63H85V258H102V269H57ZM102 241H91V252H102V241ZM91 224H102V235H91V224ZM85 224H74V235H85V224Z" fill="#40E28F"/>
  <path fill-rule="evenodd" clip-rule="evenodd" d="M1512 327H1620V436H1512V327ZM1518 333H1529V344H1518V333ZM1535 350H1518V361H1546V333H1535V350ZM1552 333H1563V378H1518V367H1552V333ZM1563 384H1518V396H1535V413H1552V430H1563V384ZM1535 419H1546V430H1535V419ZM1529 402H1518V413H1529V402ZM1518 419H1529V430H1518V419ZM1614 419H1603V430H1614V419ZM1614 413H1597V430H1586V402H1614V413ZM1580 395.244H1614V384H1569V430H1580V395.244ZM1569 378V333H1580V349.63H1597V367H1614V378H1569ZM1614 350H1603V361H1614V350ZM1603 333H1614V344H1603V333ZM1597 333H1586V344H1597V333Z" fill="#A377E6"/>
  <path fill-rule="evenodd" clip-rule="evenodd" d="M1404 436H1512V545H1404V436ZM1410 442H1421V453H1410V442ZM1427 459H1410V470H1438V442H1427V459ZM1444 442H1455V487H1410V476H1444V442ZM1455 493H1410V505H1427V522H1444V539H1455V493ZM1427 528H1438V539H1427V528ZM1421 511H1410V522H1421V511ZM1410 528H1421V539H1410V528ZM1506 528H1495V539H1506V528ZM1506 522H1489V539H1478V511H1506V522ZM1472 504.244H1506V493H1461V539H1472V504.244ZM1461 487V442H1472V458.63H1489V476H1506V487H1461ZM1506 459H1495V470H1506V459ZM1495 442H1506V453H1495V442ZM1489 442H1478V453H1489V442Z" fill="#A377E6"/>
  <path fill-rule="evenodd" clip-rule="evenodd" d="M1296 545H1404V654H1296V545ZM1302 551H1313V562H1302V551ZM1319 568H1302V579H1330V551H1319V568ZM1336 551H1347V596H1302V585H1336V551ZM1347 602H1302V614H1319V631H1336V648H1347V602ZM1319 637H1330V648H1319V637ZM1313 620H1302V631H1313V620ZM1302 637H1313V648H1302V637ZM1398 637H1387V648H1398V637ZM1398 631H1381V648H1370V620H1398V631ZM1364 613.244H1398V602H1353V648H1364V613.244ZM1353 596V551H1364V567.63H1381V585H1398V596H1353ZM1398 568H1387V579H1398V568ZM1387 551H1398V562H1387V551ZM1381 551H1370V562H1381V551Z" fill="#A377E6"/>
  <path fill-rule="evenodd" clip-rule="evenodd" d="M972 218H1080V327H972V218ZM978 224H989V235H978V224ZM995 241H978V252H1006V224H995V241ZM1012 224H1023V269H978V258H1012V224ZM1023 275H978V287H995V304H1012V321H1023V275ZM995 310H1006V321H995V310ZM989 293H978V304H989V293ZM978 310H989V321H978V310ZM1074 310H1063V321H1074V310ZM1074 304H1057V321H1046V293H1074V304ZM1040 286.244H1074V275H1029V321H1040V286.244ZM1029 269V224H1040V240.63H1057V258H1074V269H1029ZM1074 241H1063V252H1074V241ZM1063 224H1074V235H1063V224ZM1057 224H1046V235H1057V224Z" fill="#A377E6"/>
  <path fill-rule="evenodd" clip-rule="evenodd" d="M864 327H972V436H864V327ZM870 333H881V344H870V333ZM887 350H870V361H898V333H887V350ZM904 333H915V378H870V367H904V333ZM915 384H870V396H887V413H904V430H915V384ZM887 419H898V430H887V419ZM881 402H870V413H881V402ZM870 419H881V430H870V419ZM966 419H955V430H966V419ZM966 413H949V430H938V402H966V413ZM932 395.244H966V384H921V430H932V395.244ZM921 378V333H932V349.63H949V367H966V378H921ZM966 350H955V361H966V350ZM955 333H966V344H955V333ZM949 333H938V344H949V333Z" fill="#A377E6"/>
  <path fill-rule="evenodd" clip-rule="evenodd" d="M756 436H864V545H756V436ZM762 442H773V453H762V442ZM779 459H762V470H790V442H779V459ZM796 442H807V487H762V476H796V442ZM807 493H762V505H779V522H796V539H807V493ZM779 528H790V539H779V528ZM773 511H762V522H773V511ZM762 528H773V539H762V528ZM858 528H847V539H858V528ZM858 522H841V539H830V511H858V522ZM824 504.244H858V493H813V539H824V504.244ZM813 487V442H824V458.63H841V476H858V487H813ZM858 459H847V470H858V459ZM847 442H858V453H847V442ZM841 442H830V453H841V442Z" fill="#A377E6"/>
  <path fill-rule="evenodd" clip-rule="evenodd" d="M432 109H540V218H432V109ZM438 115H449V126H438V115ZM455 132H438V143H466V115H455V132ZM472 115H483V160H438V149H472V115ZM483 166H438V178H455V195H472V212H483V166ZM455 201H466V212H455V201ZM449 184H438V195H449V184ZM438 201H449V212H438V201ZM534 201H523V212H534V201ZM534 195H517V212H506V184H534V195ZM500 177.244H534V166H489V212H500V177.244ZM489 160V115H500V131.63H517V149H534V160H489ZM534 132H523V143H534V132ZM523 115H534V126H523V115ZM517 115H506V126H517V115Z" fill="#A377E6"/>
  <path fill-rule="evenodd" clip-rule="evenodd" d="M324 218H432V327H324V218ZM330 224H341V235H330V224ZM347 241H330V252H358V224H347V241ZM364 224H375V269H330V258H364V224ZM375 275H330V287H347V304H364V321H375V275ZM347 310H358V321H347V310ZM341 293H330V304H341V293ZM330 310H341V321H330V310ZM426 310H415V321H426V310ZM426 304H409V321H398V293H426V304ZM392 286.244H426V275H381V321H392V286.244ZM381 269V224H392V240.63H409V258H426V269H381ZM426 241H415V252H426V241ZM415 224H426V235H415V224ZM409 224H398V235H409V224Z" fill="#A377E6"/>
  <path fill-rule="evenodd" clip-rule="evenodd" d="M216 327H324V436H216V327ZM222 333H233V344H222V333ZM239 350H222V361H250V333H239V350ZM256 333H267V378H222V367H256V333ZM267 384H222V396H239V413H256V430H267V384ZM239 419H250V430H239V419ZM233 402H222V413H233V402ZM222 419H233V430H222V419ZM318 419H307V430H318V419ZM318 413H301V430H290V402H318V413ZM284 395.244H318V384H273V430H284V395.244ZM273 378V333H284V349.63H301V367H318V378H273ZM318 350H307V361H318V350ZM307 333H318V344H307V333ZM301 333H290V344H301V333Z" fill="#A377E6"/>
  <path fill-rule="evenodd" clip-rule="evenodd" d="M1620 327H1728V436H1620V327ZM1626 333H1637V344H1626V333ZM1643 350H1626V361H1654V333H1643V350ZM1660 333H1671V378H1626V367H1660V333ZM1671 384H1626V396H1643V413H1660V430H1671V384ZM1643 419H1654V430H1643V419ZM1637 402H1626V413H1637V402ZM1626 419H1637V430H1626V419ZM1722 419H1711V430H1722V419ZM1722 413H1705V430H1694V402H1722V413ZM1688 395.244H1722V384H1677V430H1688V395.244ZM1677 378V333H1688V349.63H1705V367H1722V378H1677ZM1722 350H1711V361H1722V350ZM1711 333H1722V344H1711V333ZM1705 333H1694V344H1705V333Z" fill="#223256"/>
  <path fill-rule="evenodd" clip-rule="evenodd" d="M1512 218H1620V327H1512V218ZM1518 224H1529V235H1518V224ZM1535 241H1518V252H1546V224H1535V241ZM1552 224H1563V269H1518V258H1552V224ZM1563 275H1518V287H1535V304H1552V321H1563V275ZM1535 310H1546V321H1535V310ZM1529 293H1518V304H1529V293ZM1518 310H1529V321H1518V310ZM1614 310H1603V321H1614V310ZM1614 304H1597V321H1586V293H1614V304ZM1580 286.244H1614V275H1569V321H1580V286.244ZM1569 269V224H1580V240.63H1597V258H1614V269H1569ZM1614 241H1603V252H1614V241ZM1603 224H1614V235H1603V224ZM1597 224H1586V235H1597V224Z" fill="#223256"/>
  <path fill-rule="evenodd" clip-rule="evenodd" d="M1404 327H1512V436H1404V327ZM1410 333H1421V344H1410V333ZM1427 350H1410V361H1438V333H1427V350ZM1444 333H1455V378H1410V367H1444V333ZM1455 384H1410V396H1427V413H1444V430H1455V384ZM1427 419H1438V430H1427V419ZM1421 402H1410V413H1421V402ZM1410 419H1421V430H1410V419ZM1506 419H1495V430H1506V419ZM1506 413H1489V430H1478V402H1506V413ZM1472 395.244H1506V384H1461V430H1472V395.244ZM1461 378V333H1472V349.63H1489V367H1506V378H1461ZM1506 350H1495V361H1506V350ZM1495 333H1506V344H1495V333ZM1489 333H1478V344H1489V333Z" fill="#223256"/>
  <path fill-rule="evenodd" clip-rule="evenodd" d="M1296 436H1404V545H1296V436ZM1302 442H1313V453H1302V442ZM1319 459H1302V470H1330V442H1319V459ZM1336 442H1347V487H1302V476H1336V442ZM1347 493H1302V505H1319V522H1336V539H1347V493ZM1319 528H1330V539H1319V528ZM1313 511H1302V522H1313V511ZM1302 528H1313V539H1302V528ZM1398 528H1387V539H1398V528ZM1398 522H1381V539H1370V511H1398V522ZM1364 504.244H1398V493H1353V539H1364V504.244ZM1353 487V442H1364V458.63H1381V476H1398V487H1353ZM1398 459H1387V470H1398V459ZM1387 442H1398V453H1387V442ZM1381 442H1370V453H1381V442Z" fill="#223256"/>
  <path fill-rule="evenodd" clip-rule="evenodd" d="M1188 327H1296V436H1188V327ZM1194 333H1205V344H1194V333ZM1211 350H1194V361H1222V333H1211V350ZM1228 333H1239V378H1194V367H1228V333ZM1239 384H1194V396H1211V413H1228V430H1239V384ZM1211 419H1222V430H1211V419ZM1205 402H1194V413H1205V402ZM1194 419H1205V430H1194V419ZM1290 419H1279V430H1290V419ZM1290 413H1273V430H1262V402H1290V413ZM1256 395.244H1290V384H1245V430H1256V395.244ZM1245 378V333H1256V349.63H1273V367H1290V378H1245ZM1290 350H1279V361H1290V350ZM1279 333H1290V344H1279V333ZM1273 333H1262V344H1273V333Z" fill="#223256"/>
  <path fill-rule="evenodd" clip-rule="evenodd" d="M1080 218H1188V327H1080V218ZM1086 224H1097V235H1086V224ZM1103 241H1086V252H1114V224H1103V241ZM1120 224H1131V269H1086V258H1120V224ZM1131 275H1086V287H1103V304H1120V321H1131V275ZM1103 310H1114V321H1103V310ZM1097 293H1086V304H1097V293ZM1086 310H1097V321H1086V310ZM1182 310H1171V321H1182V310ZM1182 304H1165V321H1154V293H1182V304ZM1148 286.244H1182V275H1137V321H1148V286.244ZM1137 269V224H1148V240.63H1165V258H1182V269H1137ZM1182 241H1171V252H1182V241ZM1171 224H1182V235H1171V224ZM1165 224H1154V235H1165V224Z" fill="#223256"/>
  <path fill-rule="evenodd" clip-rule="evenodd" d="M972 109H1080V218H972V109ZM978 115H989V126H978V115ZM995 132H978V143H1006V115H995V132ZM1012 115H1023V160H978V149H1012V115ZM1023 166H978V178H995V195H1012V212H1023V166ZM995 201H1006V212H995V201ZM989 184H978V195H989V184ZM978 201H989V212H978V201ZM1074 201H1063V212H1074V201ZM1074 195H1057V212H1046V184H1074V195ZM1040 177.244H1074V166H1029V212H1040V177.244ZM1029 160V115H1040V131.63H1057V149H1074V160H1029ZM1074 132H1063V143H1074V132ZM1063 115H1074V126H1063V115ZM1057 115H1046V126H1057V115Z" fill="#223256"/>
  <path fill-rule="evenodd" clip-rule="evenodd" d="M864 218H972V327H864V218ZM870 224H881V235H870V224ZM887 241H870V252H898V224H887V241ZM904 224H915V269H870V258H904V224ZM915 275H870V287H887V304H904V321H915V275ZM887 310H898V321H887V310ZM881 293H870V304H881V293ZM870 310H881V321H870V310ZM966 310H955V321H966V310ZM966 304H949V321H938V293H966V304ZM932 286.244H966V275H921V321H932V286.244ZM921 269V224H932V240.63H949V258H966V269H921ZM966 241H955V252H966V241ZM955 224H966V235H955V224ZM949 224H938V235H949V224Z" fill="#223256"/>
  <path fill-rule="evenodd" clip-rule="evenodd" d="M756 327H864V436H756V327ZM762 333H773V344H762V333ZM779 350H762V361H790V333H779V350ZM796 333H807V378H762V367H796V333ZM807 384H762V396H779V413H796V430H807V384ZM779 419H790V430H779V419ZM773 402H762V413H773V402ZM762 419H773V430H762V419ZM858 419H847V430H858V419ZM858 413H841V430H830V402H858V413ZM824 395.244H858V384H813V430H824V395.244ZM813 378V333H824V349.63H841V367H858V378H813ZM858 350H847V361H858V350ZM847 333H858V344H847V333ZM841 333H830V344H841V333Z" fill="#223256"/>
  <path fill-rule="evenodd" clip-rule="evenodd" d="M648 218H756V327H648V218ZM654 224H665V235H654V224ZM671 241H654V252H682V224H671V241ZM688 224H699V269H654V258H688V224ZM699 275H654V287H671V304H688V321H699V275ZM671 310H682V321H671V310ZM665 293H654V304H665V293ZM654 310H665V321H654V310ZM750 310H739V321H750V310ZM750 304H733V321H722V293H750V304ZM716 286.244H750V275H705V321H716V286.244ZM705 269V224H716V240.63H733V258H750V269H705ZM750 241H739V252H750V241ZM739 224H750V235H739V224ZM733 224H722V235H733V224Z" fill="#223256"/>
  <path fill-rule="evenodd" clip-rule="evenodd" d="M540 109H648V218H540V109ZM546 115H557V126H546V115ZM563 132H546V143H574V115H563V132ZM580 115H591V160H546V149H580V115ZM591 166H546V178H563V195H580V212H591V166ZM563 201H574V212H563V201ZM557 184H546V195H557V184ZM546 201H557V212H546V201ZM642 201H631V212H642V201ZM642 195H625V212H614V184H642V195ZM608 177.244H642V166H597V212H608V177.244ZM597 160V115H608V131.63H625V149H642V160H597ZM642 132H631V143H642V132ZM631 115H642V126H631V115ZM625 115H614V126H625V115Z" fill="#223256"/>
  <path fill-rule="evenodd" clip-rule="evenodd" d="M432 0H540V109H432V0ZM438 6H449V17H438V6ZM455 23H438V34H466V6H455V23ZM472 6H483V51H438V40H472V6ZM483 57H438V69H455V86H472V103H483V57ZM455 92H466V103H455V92ZM449 75H438V86H449V75ZM438 92H449V103H438V92ZM534 92H523V103H534V92ZM534 86H517V103H506V75H534V86ZM500 68.2444H534V57H489V103H500V68.2444ZM489 51V6H500V22.6305H517V40H534V51H489ZM534 23H523V34H534V23ZM523 6H534V17H523V6ZM517 6H506V17H517V6Z" fill="#223256"/>
  <path fill-rule="evenodd" clip-rule="evenodd" d="M324 109H432V218H324V109ZM330 115H341V126H330V115ZM347 132H330V143H358V115H347V132ZM364 115H375V160H330V149H364V115ZM375 166H330V178H347V195H364V212H375V166ZM347 201H358V212H347V201ZM341 184H330V195H341V184ZM330 201H341V212H330V201ZM426 201H415V212H426V201ZM426 195H409V212H398V184H426V195ZM392 177.244H426V166H381V212H392V177.244ZM381 160V115H392V131.63H409V149H426V160H381ZM426 132H415V143H426V132ZM415 115H426V126H415V115ZM409 115H398V126H409V115Z" fill="#223256"/>
  <path fill-rule="evenodd" clip-rule="evenodd" d="M216 218H324V327H216V218ZM222 224H233V235H222V224ZM239 241H222V252H250V224H239V241ZM256 224H267V269H222V258H256V224ZM267 275H222V287H239V304H256V321H267V275ZM239 310H250V321H239V310ZM233 293H222V304H233V293ZM222 310H233V321H222V310ZM318 310H307V321H318V310ZM318 304H301V321H290V293H318V304ZM284 286.244H318V275H273V321H284V286.244ZM273 269V224H284V240.63H301V258H318V269H273ZM318 241H307V252H318V241ZM307 224H318V235H307V224ZM301 224H290V235H301V224Z" fill="#223256"/>
  <path fill-rule="evenodd" clip-rule="evenodd" d="M108 109H216V218H108V109ZM114 115H125V126H114V115ZM131 132H114V143H142V115H131V132ZM148 115H159V160H114V149H148V115ZM159 166H114V178H131V195H148V212H159V166ZM131 201H142V212H131V201ZM125 184H114V195H125V184ZM114 201H125V212H114V201ZM210 201H199V212H210V201ZM210 195H193V212H182V184H210V195ZM176 177.244H210V166H165V212H176V177.244ZM165 160V115H176V131.63H193V149H210V160H165ZM210 132H199V143H210V132ZM199 115H210V126H199V115ZM193 115H182V126H193V115Z" fill="#223256"/>
  <path fill-rule="evenodd" clip-rule="evenodd" d="M0 0H108V109H0V0ZM6 6H17V17H6V6ZM23 23H6V34H34V6H23V23ZM40 6H51V51H6V40H40V6ZM51 57H6V69H23V86H40V103H51V57ZM23 92H34V103H23V92ZM17 75H6V86H17V75ZM6 92H17V103H6V92ZM102 92H91V103H102V92ZM102 86H85V103H74V75H102V86ZM68 68.2444H102V57H57V103H68V68.2444ZM57 51V6H68V22.6305H85V40H102V51H57ZM102 23H91V34H102V23ZM91 6H102V17H91V6ZM85 6H74V17H85V6Z" fill="#223256"/>
</svg>
